<?xml version="1.0" encoding="utf-8"?>
<!-- Generator: Adobe Illustrator 28.0.0, SVG Export Plug-In . SVG Version: 6.00 Build 0)  -->
<svg version="1.1" id="레이어_1" xmlns="http://www.w3.org/2000/svg" xmlns:xlink="http://www.w3.org/1999/xlink" x="0px"
	 y="0px" viewBox="0 0 586.1 449.6" style="enable-background:new 0 0 586.1 449.6;" xml:space="preserve">
<style type="text/css">
	.st0{opacity:0.3;enable-background:new    ;}
</style>
<path class="st0" d="M564.5,87.1c-0.2-0.2-0.5-0.5-0.7-0.7s-0.5-0.5-0.7-0.7s-0.5-0.5-0.7-0.7s-0.5-0.5-0.7-0.7s-0.5-0.5-0.7-0.7
	s-0.5-0.5-0.7-0.7s-0.5-0.5-0.7-0.7s-0.5-0.5-0.7-0.7s-0.5-0.5-0.7-0.7s-0.5-0.5-0.7-0.7s-0.5-0.5-0.7-0.7s-0.5-0.5-0.7-0.7
	s-0.5-0.5-0.7-0.7c-1.3-1.4-2.9-2.7-4.8-3.8c-1.6-0.9-3.2-1.8-4.8-2.8c-6.2-3.5-12.3-6.6-18.1-9.3c0.5-8.4,0.7-17.6,0.1-27.7
	c-0.1-1.8-0.2-3.5-0.3-5.2c-0.4-5.5-2.8-10-6.3-13.3c-0.2-0.2-0.5-0.5-0.7-0.7s-0.5-0.5-0.7-0.7s-0.5-0.5-0.7-0.7s-0.5-0.5-0.7-0.7
	s-0.5-0.5-0.7-0.7s-0.5-0.5-0.7-0.7s-0.5-0.5-0.7-0.7s-0.5-0.5-0.7-0.7s-0.5-0.5-0.7-0.7s-0.5-0.5-0.7-0.7s-0.5-0.5-0.7-0.7
	s-0.5-0.5-0.7-0.7s-0.5-0.5-0.7-0.7c-7.2-7.5-19.7-9.1-28.6-1.3c-1.5,1.3-3,2.7-4.5,4c-8.7,8.1-16.1,16.1-22.1,23.5l0,0
	c-8.7-4-19.4-8.2-31.9-11.5c-1.5-0.4-3-0.8-4.5-1.1C404,16.5,390.1,33,396.8,48.6c0.7,1.6,1.4,3.3,2.2,5c5.1,11.2,10.5,21,15.7,29.5
	l0,0c-6.3,6.9-13.1,15.4-19.7,25.5c-1.3,2-2.5,3.9-3.7,5.9c-5.5,9-3.1,19.5,3.6,25.8c0.2,0.2,0.5,0.5,0.7,0.7s0.5,0.5,0.7,0.7
	s0.5,0.5,0.7,0.7s0.5,0.5,0.7,0.7s0.5,0.5,0.7,0.7s0.5,0.5,0.7,0.7s0.5,0.5,0.7,0.7s0.5,0.5,0.7,0.7s0.5,0.5,0.7,0.7
	s0.5,0.5,0.7,0.7s0.5,0.5,0.7,0.7s0.5,0.5,0.7,0.7s0.5,0.5,0.7,0.7c4,4.2,9.8,6.7,16.4,6.1c0.1,0,0.3,0,0.4,0
	c13.4-1.2,25.2-3.5,35.1-6.1c3.5,5.2,7.4,10.6,11.9,16.1c1.1,1.4,2.2,2.7,3.3,4c0.5,0.6,1,1.1,1.5,1.6c0.2,0.2,0.5,0.5,0.7,0.7
	s0.5,0.5,0.7,0.7s0.5,0.5,0.7,0.7s0.5,0.5,0.7,0.7s0.5,0.5,0.7,0.7s0.5,0.5,0.7,0.7s0.5,0.5,0.7,0.7s0.5,0.5,0.7,0.7
	s0.5,0.5,0.7,0.7s0.5,0.5,0.7,0.7s0.5,0.5,0.7,0.7s0.5,0.5,0.7,0.7s0.5,0.5,0.7,0.7c11.2,11.8,31.3,6.5,34.9-9.7
	c0.3-1.4,0.6-2.8,0.9-4.2c2.5-12.2,4-23.6,4.8-33.6l0,0c9-2.4,18.9-5.4,29.2-9.4c2.1-0.8,4.1-1.6,6.1-2.4
	C571.9,115,574.7,97,564.5,87.1z"/>
<path d="M63,286c-7.7,0.4-34.3,1.6-51,23c-12.3,15.7-12.1,33.2-12,36.5c0.1,4.9,1.3,24.3,16.5,38.5c14.7,13.7,33.1,13.7,46.8,13.8
	c10.5,0,32.3,0,50.8-15.8c4.8-4.1,17-14.8,20-33c0.4-2.6,2.7-17.3-5-32C116,292,83.8,285,63,286z M106.4,346.1
	c-1.8,10.6-8.9,16.9-11.7,19.3c-10.8,9.2-23.6,9.2-29.7,9.2c-8,0-18.8,0-27.4-8.1c-8.9-8.3-9.6-19.7-9.7-22.6
	c-0.1-1.9-0.2-12.2,7-21.4c9.8-12.5,25.3-13.3,29.9-13.5c12.2-0.6,31,3.5,38.7,18.2C108,335.9,106.6,344.5,106.4,346.1z M199,339.4
	v9.4c0,3.9-3.3,7-7.2,6.8l-9.4-0.6c-0.2,8-0.5,16-0.8,23.8c0,0.4-0.1,2.2-5.4,5.3h-16.7c-3,0-5.4-2.5-5.4-5.5
	c0.8-11.5,1.4-23.6,1.5-36.3c0.2-10.4,0-20.3-0.3-29.9c0-0.4,0.1-2.2,1.6-3.7c1-1,2.3-1.5,3.8-1.5h16.7c3,0,5.4,2.5,5.4,5.5
	c0,6.4,0,12.9-0.1,19.4l9.9,0.7C196.3,332.8,199,335.8,199,339.4z M272,292c-7,0.3-31,1.5-46.1,20.8c-11.1,14.2-10.9,30-10.8,33
	c0.1,4.5,1.2,22,14.9,34.8c13.3,12.4,29.9,12.4,42.3,12.4c9.5,0,29.2,0,45.9-14.2c4.4-3.8,15.3-13.4,18.1-29.8
	c0.4-2.4,2.4-15.6-4.5-28.9C319.8,297.4,290.8,291.1,272,292z M311.2,346.3c-1.6,9.6-8,15.3-10.6,17.5c-9.8,8.3-21.3,8.3-26.9,8.3
	c-7.2,0-17,0-24.8-7.3c-8-7.5-8.7-17.8-8.7-20.4c0-1.8-0.1-11,6.4-19.3c8.8-11.3,22.9-12,27-12.2c11-0.5,28,3.2,35,16.4
	C312.6,337.1,311.4,344.9,311.2,346.3z M387.3,305.9c0.9,9.9,1.4,20.7,1.3,32.3c-0.1,14.4-1.1,27.7-2.5,39.6c0,0.3-0.1,1.6-3.3,3.8
	c-0.9,0.6-2,1-3.1,1h-13.6c-2.7,0-4.9-2.2-4.9-5c1.3-11.6,2.2-24.5,2.3-38.4c0.1-11.8-0.3-22.7-1.1-32.9c-0.1-0.9,0-1.8,0.4-2.6
	c0.2-0.5,0.5-1,1-1.4c0.9-0.9,2.1-1.4,3.4-1.4h15.1C385.2,301,387.4,303.2,387.3,305.9z M430.7,268.2c-4,3.5-7.9,6.3-11.3,8.5
	c-3.4,2.9-8.5,2.5-11.4-0.9l-8.3-9.7c-1.5-1.7-2.1-3.8-1.9-5.9c0.3-3.3,2.4-5.2,2.8-5.5c4-2.4,8.5-5.5,13.2-9.4
	c5.1-4.3,9.2-8.6,12.3-12.4v-24.1c0-3.7,3-6.7,6.7-6.7h15.6c3.7,0,6.7,3,6.7,6.7c0,8.2,0,16.4,0,24.7c3.5,1.4,7.4,2.7,11.7,3.8
	c7.3,1.9,14,2.8,19.7,3.2c3.5,0.8,5.7,4.1,5.2,7.6l-2.4,15.4c-0.3,1.9-1.4,3.5-2.9,4.5c-2.4,1.6-4.8,1.1-5.2,1
	c-6.5-0.8-13.6-1.9-21.3-3.6c-7.3-1.7-14-3.6-20-5.6c-0.1,0-0.1,0-0.2,0s-0.1,0-0.2,0C437,262.3,434.1,265.2,430.7,268.2z
	 M571.7,231.2c-0.5,11.2-1.4,21.6-2.5,31.4c0,0.2,0,1-1.2,2.3c-2,2.1-4.9,3.1-7.7,2.9l-13.5-0.8c-3.1,0-5.6-2.6-5.5-5.7
	c0.5-6.6,0.8-13.4,1.1-20.3l-33.9,0.6c-3.9,0.3-7.3-2.7-7.3-6.7l-0.1-9.4c0-3.6,2.7-6.6,6.2-6.8L543,218c0.1-5.6,0.1-11.2,0-16.6
	c0-0.4,0.1-2.3,1.7-3.8c1-1,2.4-1.6,3.9-1.6h17.9c3.1,0,5.6,2.6,5.5,5.7C572.1,211,572.1,220.8,571.7,231.2z M539.4,287.8l-85.3,2.4
	c-16,0.4-28,14.8-25.6,30.6l9,52.6c2,13,13.2,22.6,26.3,22.6h72.7c14.3,0,26-11.2,26.7-25.5l3.5-54.9
	C567.4,300.2,554.8,287.4,539.4,287.8z M539.7,363.9c-0.3,6-5.3,10.8-11.3,10.8h-54.8c-5.7,0-10.6-4.2-11.5-9.9l-7-39.7
	c-1.1-7.5,4.6-14.3,12.2-14.6l63.6-1.7c6.7-0.2,12.2,5.4,11.9,12.1L539.7,363.9z M483.2,5.2C495.9-6,516,2.1,517.3,19
	c0.1,1.7,0.3,3.5,0.3,5.2c0.7,12.3,0.3,23.4-0.5,33.1l0,0c8.9,3.7,18.5,8.2,28.5,13.9c1.6,0.9,3.2,1.8,4.8,2.8
	c14.7,8.7,13.1,30.4-2.7,36.9c-2,0.8-4,1.6-6.1,2.4c-10.4,3.9-20.2,7-29.2,9.4l0,0c-0.8,10.1-2.2,21.4-4.8,33.6
	c-0.3,1.4-0.6,2.8-0.9,4.2C503,177,482,182.2,471,169.3c-1.1-1.3-2.2-2.6-3.3-4c-7.7-9.5-13.8-18.7-18.7-26.9l0,0
	c-10.6,2.9-23.5,5.6-38.3,6.9c-0.1,0-0.3,0-0.4,0c-16.7,1.5-28-16.8-19.3-31.1c1.2-1.9,2.4-3.9,3.7-5.9
	c6.6-10.1,13.4-18.6,19.7-25.5l0,0c-5.2-8.5-10.6-18.3-15.7-29.5c-0.8-1.7-1.5-3.3-2.2-5c-6.7-15.6,7.2-32.1,23.7-28.2
	c1.5,0.4,3,0.7,4.5,1.1c12.4,3.3,23.1,7.4,31.9,11.5l0,0c6.1-7.4,13.4-15.4,22.1-23.5C480.2,7.8,481.7,6.5,483.2,5.2z M574,27
	L574,27c0,4.7-3.5,8.6-7,10c-4.3,1.7-6.1-1.5-13,0c-6.2,0.4-8.1,4.4-13,6l0,0c-9.7,0,4.3-19.3,10-22C558.6,14.6,572.8,14.2,574,27z
	 M584.7,63L584.7,63c-2.4,4-7.5,5.5-11.2,4.8c-4.6-0.8-4.4-4.5-11.1-6.8c-3.5-1.2-5.6-2-8.4-1.7c-3,0.5-6.5,1.3-7.9-2.5l0,0
	c2.1-6,14-10.9,22.1-11l0,0C578.1,44.3,590.4,51.5,584.7,63z M85.3,233.4h38.3v3.5h-17v3.7h12.2v9.6H94.2v3.5h25.7v3.3H90v-9.9h24.4
	v-3.3H89.8v-3.3h12.3v-3.7H85.3V233.4z M119.9,216.3v3.3h-6.1v7.3h6v3.4H89v-3.4h6v-7.3h-6.1v-3.3H119.9z M109.4,226.9v-7.3H99.3
	v7.3H109.4z M152,233.9c0.6,0.6,0.9,1.3,0.9,2.2s-0.3,1.7-0.9,2.3c-0.6,0.6-1.4,0.9-2.3,0.9c-0.9,0-1.7-0.3-2.3-0.9
	c-0.6-0.6-0.9-1.4-0.9-2.3c0-0.9,0.3-1.7,0.9-2.3c0.6-0.6,1.4-0.9,2.3-0.9C150.6,233,151.4,233.3,152,233.9z M209.3,216.9v2.8
	c0,2,0,3.8-0.1,5.5c-0.1,1.6-0.3,3.5-0.7,5.5h5.7v3.5h-38.4v-3.5H204c0.6-3.2,1-6.6,1-10.3h-24.4v-3.6h28.7V216.9z M180.2,238.2
	h29.2v11h-24.7v4.4h25.7v3.5h-30.1v-11.2H205v-4.2h-24.8V238.2z M232,217.9h16v11.8h-11.7v5.4c2.9,0,5.4-0.1,7.5-0.3
	s4.2-0.5,6.4-0.9l0.4,3.5c-2.5,0.5-4.9,0.8-7.2,1c-2.4,0.2-5.2,0.2-8.5,0.2h-2.7v-12.2h11.6v-5H232V217.9z M238,242.3h28v14.6h-28
	V242.3z M261.8,253.4v-7.6h-19.5v7.6H261.8z M266,215.1v25.2h-4.2v-11h-5.1v10.6h-4.1V216h4.1v9.8h5.1v-10.6h4.2V215.1z
	 M309.3,218.7v3.6h-4V234c2-0.2,4-0.4,5.9-0.6l0.3,3.2c-6.5,1.1-15,1.6-25.6,1.6l-0.5-3.7h5.1v-12.4h-4v-3.6h22.8V218.7z M295,244
	c2.5-1.4,6-2,10.5-2s7.9,0.7,10.5,2c2.5,1.4,3.8,3.3,3.8,5.7c0,2.5-1.3,4.4-3.8,5.7c-2.5,1.4-6,2-10.5,2s-7.9-0.7-10.5-2
	c-2.5-1.4-3.8-3.3-3.8-5.7C291.2,247.2,292.5,245.3,295,244z M301.1,234.3v-12.1h-6.3v12.3C297.5,234.5,299.6,234.4,301.1,234.3z
	 M298.1,252.9c1.7,0.8,4.2,1.2,7.3,1.2c3.1,0,5.6-0.4,7.3-1.2c1.7-0.8,2.6-1.9,2.6-3.3c0-1.4-0.9-2.4-2.6-3.2s-4.2-1.1-7.3-1.1
	c-3.1,0-5.6,0.4-7.3,1.1c-1.7,0.8-2.6,1.8-2.6,3.2C295.5,251.1,296.4,252.1,298.1,252.9z M315.1,215.2h4.4V241h-4.4V215.2z
	 M58.7,448.4c-1.4-0.8-2.5-1.9-3.3-3.4c-0.8-1.4-1.2-3.1-1.2-4.9s0.4-3.5,1.2-4.9s1.9-2.6,3.3-3.4c1.4-0.8,3-1.2,4.8-1.2
	c1.2,0,2.4,0.2,3.5,0.7s2.1,1.2,2.9,2l-1.5,1.4c-0.6-0.7-1.3-1.2-2.2-1.6c-0.9-0.4-1.8-0.6-2.8-0.6c-1.3,0-2.5,0.3-3.6,0.9
	c-1,0.6-1.9,1.5-2.4,2.7c-0.6,1.1-0.9,2.4-0.9,3.9s0.3,2.8,0.9,3.9s1.4,2,2.4,2.7c1,0.6,2.2,0.9,3.6,0.9c1,0,1.9-0.2,2.8-0.6
	c0.8-0.4,1.6-0.9,2.2-1.6l1.6,1.4c-0.9,0.9-1.8,1.5-2.9,2s-2.3,0.7-3.5,0.7C61.7,449.6,60.1,449.2,58.7,448.4z M100.7,449.4h-2.2
	v-8.6h-9.9v8.6h-2.2v-18.6h2.2v8.1h9.9v-8.1h2.2V449.4z M134.5,449.4h-2.4l-2.1-5.2h-8.7l-2.2,5.2h-2.4l7.8-18.6h2.6L134.5,449.4z
	 M129.2,442.2l-3.5-8.6l-3.6,8.6H129.2z M150.7,430.8h7.7c1.1,0,2.1,0.3,3,0.8s1.6,1.2,2,2.1c0.5,0.9,0.7,1.9,0.7,3.1
	c0,1.3-0.4,2.5-1.2,3.5s-1.8,1.7-3.1,2.1l5.2,7.1h-2.8l-5-6.9H153v6.9h-2.2L150.7,430.8L150.7,430.8z M160.9,439.5
	c0.7-0.7,1-1.7,1-2.8c0-1.1-0.3-2.1-1-2.8c-0.7-0.7-1.6-1.1-2.6-1.1H153v7.8h5.3C159.3,440.6,160.2,440.2,160.9,439.5z M198.9,449.4
	h-2.4l-2.1-5.2h-8.7l-2.2,5.2H181l7.8-18.6h2.6L198.9,449.4z M193.6,442.2l-3.5-8.6l-3.6,8.6H193.6z M216.9,448.4
	c-1.4-0.8-2.5-1.9-3.3-3.4c-0.8-1.4-1.2-3.1-1.2-4.9s0.4-3.5,1.2-4.9s1.9-2.6,3.3-3.4c1.4-0.8,3-1.2,4.8-1.2c1.2,0,2.4,0.2,3.5,0.7
	s2.1,1.2,2.9,2l-1.5,1.4c-0.6-0.7-1.3-1.2-2.2-1.6s-1.8-0.6-2.8-0.6c-1.3,0-2.5,0.3-3.6,0.9c-1,0.6-1.9,1.5-2.4,2.7
	c-0.6,1.1-0.9,2.4-0.9,3.9s0.3,2.8,0.9,3.9s1.4,2,2.4,2.7c1,0.6,2.2,0.9,3.6,0.9c1,0,1.9-0.2,2.8-0.6c0.8-0.4,1.6-0.9,2.2-1.6
	l1.6,1.4c-0.9,0.9-1.8,1.5-2.9,2c-1.1,0.5-2.3,0.7-3.5,0.7C219.9,449.6,218.3,449.2,216.9,448.4z M257.1,432.8h-5.7v16.6h-2.2v-16.6
	h-5.7v-2h13.6V432.8z M285.8,432.8h-10.5v6h9.2v2h-9.2v6.6h10.5v2H273v-18.6h12.8V432.8z M302.6,430.8h7.7c1.1,0,2.1,0.3,3,0.8
	s1.6,1.2,2,2.1c0.5,0.9,0.7,1.9,0.7,3.1c0,1.3-0.4,2.5-1.2,3.5c-0.8,1-1.8,1.7-3.1,2.1l5.2,7.1h-2.8l-5-6.9h-4.2v6.9h-2.2v-18.7
	H302.6z M312.8,439.5c0.7-0.7,1-1.7,1-2.8c0-1.1-0.3-2.1-1-2.8c-0.7-0.7-1.6-1.1-2.6-1.1h-5.3v7.8h5.3
	C311.3,440.6,312.2,440.2,312.8,439.5z M355.1,430.8v18.6h-2.2v-18.6H355.1z M375.2,446.9c0.9,0.5,1.7,0.7,2.6,0.7
	c1.3,0,2.3-0.3,3.1-1c0.8-0.6,1.2-1.5,1.2-2.5c0-0.6-0.2-1.1-0.6-1.5s-0.8-0.7-1.4-0.9s-1.3-0.5-2.3-0.8c-1.3-0.4-2.3-0.8-3-1.2
	c-0.8-0.4-1.4-0.9-2-1.6s-0.8-1.6-0.8-2.7c0-1,0.3-1.8,0.8-2.6c0.5-0.8,1.2-1.4,2.1-1.8s1.9-0.6,3.1-0.6c1.1,0,2.2,0.3,3.2,0.8
	s1.9,1.2,2.6,2.1l-1.7,1.3c-0.5-0.7-1.1-1.2-1.8-1.6c-0.7-0.4-1.4-0.6-2.2-0.6c-1.1,0-2,0.3-2.7,0.9s-1,1.3-1,2.2
	c0,0.6,0.2,1.2,0.6,1.6s0.9,0.8,1.5,1c0.6,0.3,1.4,0.6,2.4,0.9c1.2,0.4,2.2,0.8,3,1.2s1.4,0.9,1.9,1.5s0.8,1.5,0.8,2.5
	s-0.3,2-0.8,2.8c-0.6,0.8-1.3,1.5-2.3,1.9c-1,0.5-2.1,0.7-3.4,0.7c-1.2,0-2.4-0.3-3.6-0.9s-2.1-1.4-2.9-2.4l1.7-1.3
	C373.6,445.8,374.3,446.4,375.2,446.9z M403.3,447.4h9.4v2H401v-18.6h2.2v16.6H403.3z M446.2,449.4h-2.4l-2.1-5.2H433l-2.2,5.2h-2.4
	l7.8-18.6h2.6L446.2,449.4z M440.8,442.2l-3.5-8.6l-3.6,8.6H440.8z M477.6,449.4h-2.3l-10.8-14.9v14.9h-2.2v-18.6h2.3l10.8,14.9
	v-14.9h2.2V449.4z M494.9,430.8h5.8c1.8,0,3.4,0.4,4.8,1.2c1.4,0.8,2.5,1.9,3.3,3.3s1.2,3,1.2,4.8s-0.4,3.4-1.2,4.8
	c-0.8,1.4-1.9,2.5-3.3,3.3s-3,1.2-4.8,1.2h-5.8V430.8z M504.4,446.5c1.1-0.6,1.9-1.5,2.5-2.6s0.9-2.4,0.9-3.8s-0.3-2.7-0.9-3.8
	c-0.6-1.1-1.4-2-2.5-2.6s-2.3-0.9-3.7-0.9h-3.6v14.6h3.6C502.1,447.4,503.3,447.1,504.4,446.5z"/>
</svg>
