<?xml version="1.0" encoding="utf-8"?>
<!-- Generator: Adobe Illustrator 28.0.0, SVG Export Plug-In . SVG Version: 6.00 Build 0)  -->
<svg version="1.1" id="레이어_1" xmlns="http://www.w3.org/2000/svg" xmlns:xlink="http://www.w3.org/1999/xlink" x="0px"
	 y="0px" viewBox="0 0 203.2 191.5" style="enable-background:new 0 0 203.2 191.5;" xml:space="preserve">
<path d="M111.2,191.5c-6.2,0-12.2-2.5-16.6-7.1c-0.2-0.2-0.5-0.5-0.7-0.7c-0.2-0.2-0.5-0.5-0.7-0.7c-0.2-0.2-0.5-0.5-0.7-0.7
	c-0.2-0.2-0.5-0.5-0.7-0.7c-0.2-0.2-0.5-0.5-0.7-0.7c-0.2-0.2-0.5-0.5-0.7-0.7c-0.2-0.2-0.5-0.5-0.7-0.7c-0.2-0.2-0.5-0.5-0.7-0.7
	c-0.2-0.2-0.5-0.5-0.7-0.7c-0.2-0.2-0.5-0.5-0.7-0.7c-0.2-0.2-0.5-0.5-0.7-0.7c-0.2-0.2-0.5-0.5-0.7-0.7c-0.2-0.2-0.5-0.5-0.7-0.7
	c-0.6-0.6-1.2-1.2-1.6-1.7c-1.1-1.3-2.2-2.7-3.4-4.1c-3.8-4.7-7.5-9.7-11-14.8c-11.1,2.8-22.5,4.7-33.8,5.7l-0.4,0
	c-7.1,0.6-13.6-1.8-18.4-6.8c-0.2-0.2-0.5-0.5-0.7-0.7c-0.2-0.2-0.5-0.5-0.7-0.7c-0.2-0.2-0.5-0.5-0.7-0.7c-0.2-0.2-0.5-0.5-0.7-0.7
	c-0.2-0.2-0.5-0.5-0.7-0.7c-0.2-0.2-0.5-0.5-0.7-0.7c-0.2-0.2-0.5-0.5-0.7-0.7c-0.2-0.2-0.5-0.5-0.7-0.7c-0.2-0.2-0.5-0.5-0.7-0.7
	c-0.2-0.2-0.5-0.5-0.7-0.7c-0.2-0.2-0.5-0.5-0.7-0.7c-0.2-0.2-0.5-0.5-0.7-0.7c-0.2-0.2-0.5-0.5-0.7-0.7c-8-7.6-9.7-19.4-4-28.8
	c1.2-2,2.5-4,3.8-6c5.6-8.6,11.9-16.8,18.7-24.4C20.3,75.9,15.3,66.4,11,56.8c-0.8-1.7-1.5-3.4-2.2-5c-3.5-8.1-2.1-17.3,3.6-24
	c5.7-6.7,14.5-9.6,23-7.6c1.5,0.4,3,0.7,4.6,1.1c10.4,2.8,20.7,6.4,30.5,10.8C77,24.3,84.1,16.8,91.5,9.9c1.5-1.4,3-2.8,4.5-4.1
	c10.4-9.2,24.5-6.5,32,1.4c0.2,0.2,0.5,0.5,0.7,0.7c0.2,0.2,0.5,0.5,0.7,0.7c0.2,0.2,0.5,0.5,0.7,0.7c0.2,0.2,0.5,0.5,0.7,0.7
	c0.2,0.2,0.5,0.5,0.7,0.7c0.2,0.2,0.5,0.5,0.7,0.7c0.2,0.2,0.5,0.5,0.7,0.7c0.2,0.2,0.5,0.5,0.7,0.7c0.2,0.2,0.5,0.5,0.7,0.7
	c0.2,0.2,0.5,0.5,0.7,0.7c0.2,0.2,0.5,0.5,0.7,0.7c0.2,0.2,0.5,0.5,0.7,0.7c0.2,0.2,0.5,0.5,0.7,0.7c4.1,3.9,6.5,9.1,7,14.8
	c0.1,1.7,0.3,3.5,0.4,5.3c0.5,8.7,0.5,17.5,0,26.3c5.7,2.7,11.3,5.6,16.8,8.7c1.6,0.9,3.3,1.8,4.8,2.8c2,1.2,3.8,2.6,5.3,4.2
	l0.1,0.1c0.2,0.2,0.4,0.4,0.6,0.6l0.1,0.1c0.2,0.2,0.4,0.4,0.6,0.6l0,0c0.2,0.2,0.5,0.4,0.7,0.7l0.1,0.1c0.2,0.2,0.4,0.4,0.6,0.6
	l0.1,0.1c0.2,0.2,0.4,0.4,0.6,0.6c0.3,0.3,0.5,0.5,0.7,0.7l0.1,0.1c0.2,0.2,0.4,0.4,0.6,0.6l0.1,0.1c0.2,0.2,0.4,0.4,0.6,0.6
	l0.1,0.1c0.2,0.2,0.4,0.4,0.6,0.6l0,0c0.2,0.2,0.5,0.4,0.7,0.7l0.1,0.1c0.2,0.2,0.4,0.4,0.6,0.6l0.1,0.1c0.2,0.2,0.4,0.4,0.6,0.6
	c0.3,0.3,0.5,0.5,0.7,0.7c5.5,5.4,7.9,13.2,6.4,20.9c-1.5,7.8-6.6,13.9-14,17c-2,0.8-4.1,1.6-6.1,2.4c-9,3.5-18.4,6.5-27.8,9
	c-0.9,10.8-2.5,21.6-4.7,32.2c-0.3,1.4-0.6,2.9-0.9,4.3c-1.9,8.4-8,14.8-16.3,17.1C115.4,191.2,113.3,191.5,111.2,191.5z
	 M71.4,148.8l1,1.5c3.7,5.5,7.6,10.9,11.8,15.9c1.1,1.4,2.2,2.7,3.3,4c0.4,0.4,0.8,0.9,1.3,1.4l0.1,0.1c0.2,0.2,0.4,0.4,0.6,0.6
	l0.1,0.1c0.2,0.2,0.4,0.4,0.6,0.6l0.1,0.1c0.2,0.2,0.4,0.4,0.6,0.6l0.1,0.1c0.2,0.2,0.4,0.4,0.6,0.6l0.1,0.1
	c0.2,0.2,0.4,0.4,0.6,0.6l0.1,0.1c0.2,0.2,0.4,0.4,0.6,0.6l0.1,0.1c0.2,0.2,0.4,0.4,0.6,0.6l0.1,0.1c0.2,0.2,0.4,0.4,0.6,0.6
	l0.1,0.1c0.2,0.2,0.4,0.4,0.6,0.6l0.1,0.1c0.2,0.2,0.4,0.4,0.6,0.6l0.1,0.1c0.2,0.2,0.4,0.4,0.6,0.6l0.1,0.1
	c0.2,0.2,0.4,0.4,0.6,0.6l0.1,0.1c0.2,0.2,0.4,0.4,0.6,0.6l0.1,0.1c4.7,4.9,11.3,6.7,17.9,4.9c6.5-1.8,11.3-6.8,12.8-13.4
	c0.3-1.4,0.6-2.8,0.9-4.2c2.3-10.9,3.9-22.1,4.7-33.2v-2.4l2.2,0c9.7-2.5,19.3-5.6,28.7-9.2c2-0.8,4-1.6,6-2.4
	c5.8-2.4,9.8-7.2,11-13.3c1.2-6-0.7-12.2-5-16.4l-0.1-0.1c-0.2-0.2-0.4-0.4-0.6-0.6l-0.2-0.2c-0.2-0.2-0.3-0.3-0.5-0.5l-0.2-0.2
	c-0.2-0.2-0.3-0.3-0.5-0.5l-0.2-0.2c-0.2-0.2-0.4-0.4-0.5-0.5l-0.2-0.2c-0.2-0.2-0.3-0.3-0.5-0.5l-0.2-0.2c-0.2-0.2-0.3-0.3-0.5-0.5
	L173,87c-0.2-0.2-0.3-0.3-0.5-0.5l-0.2-0.2c-0.2-0.2-0.4-0.4-0.6-0.6l-0.2-0.2c-0.2-0.2-0.3-0.3-0.5-0.5l-0.2-0.2
	c-0.2-0.2-0.3-0.3-0.5-0.5l-0.2-0.2c-0.2-0.2-0.4-0.4-0.5-0.5l-0.2-0.2c-0.2-0.2-0.3-0.3-0.5-0.5l-0.2-0.2c-0.2-0.2-0.3-0.3-0.5-0.5
	L168,82c-1.2-1.3-2.6-2.4-4.2-3.4c-1.6-0.9-3.1-1.8-4.8-2.7c-5.8-3.3-11.9-6.4-18-9.2l-1.5-0.7l0.1-1.7c0.6-9.1,0.6-18.4,0.1-27.4
	c-0.1-1.8-0.2-3.5-0.3-5.2c-0.4-4.6-2.3-8.6-5.5-11.7l-0.1-0.1c-0.2-0.2-0.4-0.4-0.6-0.6l-0.1-0.1c-0.2-0.2-0.4-0.4-0.6-0.6
	l-0.1-0.1c-0.2-0.2-0.4-0.4-0.6-0.6l-0.1-0.1c-0.2-0.2-0.4-0.4-0.6-0.6l-0.1-0.1c-0.2-0.2-0.4-0.4-0.6-0.6l-0.1-0.1
	c-0.2-0.2-0.4-0.4-0.6-0.6l-0.1-0.1c-0.2-0.2-0.4-0.4-0.6-0.6l-0.1-0.1c-0.2-0.2-0.4-0.4-0.6-0.6l-0.1-0.1c-0.2-0.2-0.4-0.4-0.6-0.6
	l-0.1-0.1c-0.2-0.2-0.4-0.4-0.6-0.6l-0.1-0.1c-0.2-0.2-0.4-0.4-0.6-0.6l-0.1-0.1c-0.2-0.2-0.4-0.4-0.6-0.6l-0.1-0.1
	c-0.2-0.2-0.4-0.4-0.6-0.6l-0.1-0.1c-5.9-6.2-17-8.3-25.2-1.1c-1.5,1.3-3,2.7-4.4,4c-7.8,7.2-15.2,15-21.9,23.2L72.9,37l-1,1
	l-1.8-0.5C59.9,32.8,49.4,29,38.6,26.1c-1.5-0.4-3-0.8-4.4-1.1c-6.8-1.6-13.5,0.6-18,5.9c-4.5,5.3-5.5,12.4-2.8,18.8
	c0.7,1.6,1.4,3.3,2.2,4.9c4.5,10,9.8,19.9,15.6,29.2l0.4,0.6v1.7L30.8,87c-7.1,7.8-13.7,16.3-19.4,25.1c-1.3,1.9-2.5,3.9-3.7,5.8
	c-4.5,7.4-3.2,16.7,3.2,22.6l0.1,0.1c0.2,0.2,0.4,0.4,0.6,0.6l0.1,0.1c0.2,0.2,0.4,0.4,0.6,0.6l0.1,0.1c0.2,0.2,0.4,0.4,0.6,0.6
	l0.1,0.1c0.2,0.2,0.4,0.4,0.6,0.6l0.1,0.1c0.2,0.2,0.4,0.4,0.6,0.6l0.1,0.1c0.2,0.2,0.4,0.4,0.6,0.6l0.1,0.1
	c0.2,0.2,0.4,0.4,0.6,0.6l0.1,0.1c0.2,0.2,0.4,0.4,0.6,0.6l0.1,0.1c0.2,0.2,0.4,0.4,0.6,0.6l0.1,0.1c0.2,0.2,0.4,0.4,0.6,0.6
	l0.1,0.1c0.2,0.2,0.4,0.4,0.6,0.6l0.1,0.1c0.2,0.2,0.4,0.4,0.6,0.6l0.1,0.1c0.2,0.2,0.4,0.4,0.6,0.6l0.1,0.1
	c3.8,3.9,8.9,5.8,14.4,5.3l0.4,0c11.7-1,23.3-3.1,34.7-6L71.4,148.8z M101.2,181.5c-6.7,0-13.1-2.9-17.5-8.1
	c-1.1-1.3-2.3-2.7-3.4-4.1c-6.6-8.1-12.6-16.7-18-25.6c-12.1,3.2-24.5,5.4-36.9,6.5l-0.4,0c-8.7,0.8-17-3.4-21.6-10.8
	c-4.6-7.4-4.7-16.7-0.1-24.1c1.2-2,2.5-4,3.8-6c5.6-8.6,11.9-16.8,18.7-24.4C20.3,75.9,15.3,66.4,11,56.8c-0.8-1.7-1.5-3.4-2.2-5
	c-3.5-8.1-2.1-17.3,3.6-24c5.7-6.7,14.5-9.6,23-7.6c1.5,0.4,3,0.7,4.6,1.1c10.4,2.8,20.7,6.4,30.5,10.8C77,24.3,84.1,16.8,91.5,9.9
	c1.5-1.4,3-2.8,4.5-4.1l0,0c6.6-5.8,15.8-7.4,24-4.1c8.1,3.3,13.6,10.8,14.3,19.6c0.1,1.7,0.3,3.5,0.4,5.3
	c0.6,10.5,0.5,21.1-0.4,31.6c9.3,3.9,18.4,8.4,27.1,13.3c1.6,0.9,3.3,1.8,4.8,2.8c7.6,4.5,12,12.7,11.3,21.5
	c-0.6,8.8-6.1,16.4-14.4,19.8c-2,0.8-4.1,1.6-6.1,2.4c-9,3.5-18.4,6.5-27.8,9c-0.9,10.8-2.5,21.6-4.7,32.2c-0.3,1.4-0.6,2.9-0.9,4.3
	c-1.9,8.6-8.4,15.2-17,17.3C104.9,181.3,103.1,181.5,101.2,181.5z M63.5,137.2l2,2l0.2,0.3c5.5,9.3,11.7,18.3,18.5,26.6
	c1.1,1.4,2.2,2.7,3.3,4c4.5,5.3,11.3,7.5,18.1,5.8c6.8-1.7,11.7-6.7,13.3-13.6c0.3-1.4,0.6-2.8,0.9-4.2c2.3-10.9,3.9-22.1,4.7-33.2
	v-2.4l2.2,0c9.7-2.5,19.3-5.6,28.7-9.2c2-0.8,4-1.6,6-2.4c6.6-2.7,10.8-8.5,11.3-15.5c0.5-7-2.8-13.3-8.9-16.9
	c-1.6-0.9-3.1-1.8-4.8-2.7c-9-5-18.3-9.6-27.8-13.6h-2l0-2.6l0-0.1c0.9-10.9,1.1-21.9,0.5-32.8c-0.1-1.8-0.2-3.5-0.3-5.2
	c-0.5-7-4.7-12.7-11.2-15.3c-6.5-2.6-13.5-1.4-18.8,3.2l0,0c-1.5,1.3-3,2.6-4.4,4c-7.8,7.2-15.2,15-21.9,23.2L72.9,37l-1,1l-1.8-0.5
	C59.9,32.8,49.4,29,38.6,26.1c-1.5-0.4-3-0.8-4.4-1.1c-6.8-1.6-13.5,0.6-18,5.9c-4.5,5.3-5.5,12.4-2.8,18.8c0.7,1.6,1.4,3.3,2.2,4.9
	c4.5,10,9.8,19.9,15.6,29.2l0.4,0.6v1.7L30.8,87c-7.1,7.8-13.7,16.3-19.4,25.1c-1.3,1.9-2.5,3.9-3.7,5.8c-3.6,5.9-3.6,13,0.1,18.9
	c3.7,5.9,10,9,16.8,8.4l0.4,0c12.6-1.1,25.1-3.4,37.2-6.7L63.5,137.2z M156,48l-0.4,0c-4.3,0-5.4-2.8-5.7-4.1
	c-1.5-6.5,9-19.7,14.3-22.5c5.4-4.5,13.2-6,18.9-3.7c4.6,1.9,7.4,6,8,11.6l0,0.2c0,5.9-4.3,10.7-8.6,12.3c-2.8,1.1-4.9,0.6-6.8,0.2
	c-1.7-0.4-3.5-0.8-6.6-0.1l-0.4,0.1c-3,0.2-4.6,1.3-6.7,2.8c-1.5,1.1-3.3,2.3-5.7,3.1L156,48z M154.8,42.9c0,0,0.2,0,0.4,0.1
	c1.4-0.5,2.6-1.3,3.9-2.3c2.3-1.6,4.8-3.4,9.1-3.7c4-0.8,6.6-0.3,8.5,0.2c1.6,0.4,2.5,0.6,3.9,0c2.6-1,5.4-4,5.4-7.5
	c-0.4-3.7-2-6.2-4.9-7.3c-4-1.6-10-0.3-14,3.1l-0.3,0.2l-0.3,0.1c-2.8,1.3-9.5,9-11.5,14.7C154.5,42.3,154.8,42.9,154.8,42.9
	C154.8,42.9,154.8,42.9,154.8,42.9z M189.8,73c-0.8,0-1.5-0.1-2.2-0.2c-3-0.5-4.5-2.1-5.9-3.4c-1.3-1.2-2.6-2.5-5.5-3.6
	c-3.3-1.2-5-1.8-7.2-1.5l-0.5,0.1c-2.8,0.5-8.1,1.3-10-4.3l-0.3-0.8l0.3-0.8c2.7-7.6,15.9-12.5,24.2-12.7c7-1,14.5,1.7,18.2,6.8
	c2.9,4,3.2,9,0.7,14l-0.1,0.2C198.8,71.1,194,73,189.8,73z M169.9,59.3c2.6,0,4.9,0.8,7.9,1.9c4,1.4,5.9,3.3,7.4,4.7
	c1.2,1.2,1.8,1.8,3.3,2.1c2.8,0.5,6.7-0.6,8.6-3.6c1.6-3.3,1.5-6.3-0.3-8.8c-2.6-3.5-8.4-5.5-13.5-4.8l-0.3,0
	c-7.4,0.1-16.9,4.4-19.4,8.5c0.5,0.6,1.5,0.6,4.1,0.2l0.7-0.1C168.9,59.3,169.4,59.3,169.9,59.3z"/>
</svg>
