<?xml version="1.0" encoding="utf-8"?>
<!-- Generator: Adobe Illustrator 28.0.0, SVG Export Plug-In . SVG Version: 6.00 Build 0)  -->
<svg version="1.1" id="레이어_1" xmlns="http://www.w3.org/2000/svg" xmlns:xlink="http://www.w3.org/1999/xlink" x="0px"
	 y="0px" viewBox="0 0 68.3 23.2" style="enable-background:new 0 0 68.3 23.2;" xml:space="preserve">
<style type="text/css">
	.st0{opacity:0.4;fill:#FFFFFF;}
	.st1{fill:#FFFFFF;}
</style>
<g>
	<path class="st0" d="M8.7,11.5c1-5.3,5-9.8,10.6-11.2c1.5-0.4,3-0.5,4.5-0.3c-1,5.3-5,9.8-10.6,11.2C11.7,11.6,10.1,11.7,8.7,11.5"
		/>
	<path class="st1" d="M4.2,6.7C4.1,6.7,4,6.6,4,6.6V5.1C4,5,4.1,4.9,4.2,4.9h6.9c0.1,0,0.2,0.1,0.2,0.2v1.5c0,0.1-0.1,0.2-0.2,0.2
		H8.7V12c0,0.1-0.1,0.1-0.1,0.1H6.7c-0.1,0-0.1-0.1-0.1-0.1V6.7H4.2z M13.8,7.5L13.8,7.5c0.4-0.3,0.9-0.5,1.5-0.5c1.3,0,2,0.8,2,2
		v2.8c0,0.1-0.1,0.2-0.2,0.2h-1.6c-0.1,0-0.2-0.1-0.2-0.2V9.3c0-0.3-0.3-0.6-0.6-0.6c-0.4,0-0.7,0.2-0.9,0.6v2.6
		c0,0.1-0.1,0.2-0.2,0.2H12c-0.1,0-0.2-0.1-0.2-0.2V4.4c0-0.1,0.1-0.2,0.2-0.2h1.6c0.1,0,0.2,0.1,0.2,0.2V7.5z M20.1,10.1
		c0.1,0.4,0.5,0.6,1.2,0.6c0.6,0,1.2-0.2,1.5-0.3c0.1,0,0.2-0.1,0.3-0.1c0.2,0,0.3,0.1,0.3,0.2l0.2,0.6c0,0.1,0.1,0.2,0.1,0.3
		c0,0.1,0,0.2-0.2,0.3c-0.5,0.3-1.3,0.5-2.1,0.5c-1.9,0-3.2-1-3.2-2.6c0-1.4,1.2-2.6,3-2.6c1.8,0,2.8,1,2.8,2.3
		c0,0.4-0.1,0.8-0.1,0.8H20.1z M20.1,9.1h1.7c0-0.4-0.3-0.6-0.8-0.6C20.6,8.4,20.2,8.7,20.1,9.1z"/>
	<path class="st1" d="M26.9,12.2V8.2h2.6V7.6h-3.7V5.9H35v1.7h-3.7v0.6h2.6v4.1H26.9z M33.7,5.8L30.4,4l-3.3,1.8l-0.8-1.5l3.2-1.8
		V1.3h1.8v1.2l3.2,1.8L33.7,5.8z M32.2,9.9h-3.5v0.6h3.5V9.9z"/>
	<path class="st1" d="M38.4,12.1c-0.1,0-0.1-0.1-0.1-0.1V5.1c0-0.1,0.1-0.1,0.1-0.1h4.8c0.1,0,0.1,0.1,0.1,0.2v1.5
		c0,0.1-0.1,0.2-0.1,0.2h-3V8h2.8C42.9,8,43,8.1,43,8.2v1.4c0,0.1-0.1,0.2-0.1,0.2h-2.8V12c0,0.1-0.1,0.1-0.1,0.1H38.4z M48.6,9.6
		c0,1.7-1.2,2.6-2.5,2.6s-2.5-0.9-2.5-2.6c0-1.7,1.2-2.6,2.5-2.6S48.6,8,48.6,9.6z M46.1,8.7c-0.5,0-0.8,0.4-0.8,0.9
		c0,0.5,0.3,0.9,0.8,0.9s0.8-0.4,0.8-0.9C46.9,9.1,46.5,8.7,46.1,8.7z M51,9.3v2.6c0,0.1-0.1,0.2-0.2,0.2h-1.4
		c-0.1,0-0.2-0.1-0.2-0.2V7.4c0-0.1,0.1-0.2,0.2-0.2h1.2c0.1,0,0.1,0.1,0.2,0.2l0.1,0.5h0c0.3-0.6,0.8-0.8,1.3-0.8
		c0.8,0,1.3,0.5,1.3,1.6v0.8c0,0.1-0.1,0.2-0.2,0.2H52c-0.1,0-0.2-0.1-0.2-0.2V9.1c0-0.2-0.1-0.4-0.3-0.4C51.3,8.7,51,9,51,9.3z
		 M55.8,10.1c0.1,0.4,0.4,0.6,1,0.6c0.5,0,1-0.2,1.3-0.3c0.1,0,0.2-0.1,0.3-0.1c0.1,0,0.2,0.1,0.2,0.2l0.1,0.6
		c0,0.1,0.1,0.2,0.1,0.3c0,0.1,0,0.2-0.2,0.3c-0.4,0.3-1.1,0.5-1.8,0.5c-1.6,0-2.7-1-2.7-2.6c0-1.4,1-2.6,2.5-2.6
		c1.6,0,2.4,1,2.4,2.3c0,0.4-0.1,0.8-0.1,0.8H55.8z M55.8,9.1h1.5c0-0.4-0.2-0.6-0.7-0.6C56.2,8.4,55.8,8.7,55.8,9.1z M61.1,10.5
		c0.1,0,0.2,0,0.2,0.1c0.1,0.2,0.2,0.3,0.6,0.3c0.4,0,0.5-0.2,0.5-0.3c0-0.2-0.1-0.3-0.5-0.3l-0.9-0.1c-1-0.1-1.5-0.6-1.5-1.4
		c0-0.9,0.8-1.8,2.2-1.8c1.4,0,2.1,0.7,2.1,1.4c0,0.1-0.1,0.2-0.2,0.2h-1.3c-0.1,0-0.2,0-0.2-0.1c-0.1-0.1-0.2-0.2-0.4-0.2
		c-0.3,0-0.5,0.1-0.5,0.3c0,0.1,0.1,0.2,0.3,0.2l1,0.1c1.1,0.1,1.5,0.7,1.5,1.4c0,0.9-0.7,1.8-2.3,1.8c-1.5,0-2.3-0.7-2.3-1.5
		c0-0.1,0.1-0.3,0.2-0.3H61.1z M64.7,8.9c-0.1,0-0.1-0.1-0.1-0.2V7.4c0-0.1,0.1-0.2,0.1-0.2h0.4V6.1c0-0.1,0.1-0.2,0.2-0.2h1.4
		c0.1,0,0.2,0.1,0.2,0.2v1.1H68c0.1,0,0.1,0.1,0.1,0.2v1.3c0,0.1-0.1,0.2-0.1,0.2h-1.2v1.1c0,0.4,0.2,0.6,0.5,0.6
		c0.2,0,0.4-0.1,0.5-0.2c0.1-0.1,0.3,0,0.3,0.1l0.2,0.9c0,0.1,0,0.2,0,0.2c0,0.1,0,0.2-0.1,0.2c-0.2,0.2-0.7,0.4-1.3,0.4
		c-1.1,0-1.8-0.7-1.8-2V8.9H64.7z"/>
	<path class="st1" d="M4.9,18.9c-0.1,0-0.1-0.1-0.2-0.2c-0.1-0.7-0.6-1.1-1.3-1.1c-0.8,0-1.5,0.7-1.5,1.9c0,1.2,0.7,1.9,1.5,1.9
		c0.7,0,1.2-0.4,1.3-1.1c0-0.1,0.1-0.2,0.2-0.2h1.5c0.1,0,0.2,0,0.2,0.2c0,1.5-1.1,2.9-3.2,2.9c-1.9,0-3.4-1.5-3.4-3.7
		c0-2.1,1.5-3.7,3.4-3.7c2,0,3.2,1.4,3.2,3c0,0.1-0.1,0.2-0.2,0.2H4.9z M11.9,22.1H9.2l-0.3,0.8c-0.1,0.1-0.1,0.2-0.2,0.2H7
		c-0.1,0-0.1,0-0.1-0.1s0-0.1,0-0.1l2.8-7h1.7l2.8,7c0,0,0,0.1,0,0.1s0,0.1-0.1,0.1h-1.7c-0.1,0-0.2,0-0.2-0.2L11.9,22.1z M9.8,20.4
		h1.4L11,19.7c-0.2-0.4-0.4-1.4-0.4-1.4h-0.1c0,0-0.2,0.9-0.4,1.4L9.8,20.4z M22.3,15.9c0.1,0,0.1,0.1,0.1,0.1V23
		c0,0.1-0.1,0.1-0.1,0.1h-1.6c-0.1,0-0.1-0.1-0.1-0.1v-3.6h0c0,0-0.2,0.4-0.4,0.7l-1.5,2.4L17.2,20c-0.2-0.4-0.4-0.7-0.4-0.7h0V23
		c0,0.1-0.1,0.1-0.1,0.1H15c-0.1,0-0.1-0.1-0.1-0.1v-6.9c0-0.1,0.1-0.1,0.1-0.1h1.4c0.1,0,0.1,0,0.2,0.1l2,3.3h0l2-3.3
		c0.1-0.1,0.1-0.1,0.2-0.1H22.3z M23.7,23.1c-0.1,0-0.1-0.1-0.1-0.1v-6.9c0-0.1,0.1-0.1,0.1-0.1h2.7c1.5,0,2.6,1.1,2.6,2.8
		c0,1.7-1.1,2.7-2.6,2.7h-1V23c0,0.1-0.1,0.1-0.1,0.1H23.7z M25.4,17.7v2h0.8c0.6,0,0.9-0.4,0.9-1c0-0.6-0.3-1-0.9-1H25.4z M31.7,23
		c0,0.1-0.1,0.1-0.1,0.1H30c-0.1,0-0.1-0.1-0.1-0.1v-6.9c0-0.1,0.1-0.1,0.1-0.1h1.6c0.1,0,0.1,0.1,0.1,0.1V23z M35.4,20
		c-0.3-0.3-0.6-0.8-0.6-0.8h0V23c0,0.1-0.1,0.1-0.1,0.1H33c-0.1,0-0.1-0.1-0.1-0.1v-6.9c0-0.1,0.1-0.1,0.1-0.1h1.4L37,19
		c0.3,0.3,0.6,0.7,0.6,0.7h0v-3.7c0-0.1,0.1-0.1,0.1-0.1h1.6c0.1,0,0.1,0.1,0.1,0.1V23c0,0.1-0.1,0.1-0.1,0.1H38L35.4,20z
		 M47.3,19.7c0,1.9-1.3,3.5-3.3,3.5c-2.2,0-3.6-1.7-3.6-3.7c0-2.1,1.5-3.7,3.5-3.7c2,0,3.2,1.5,3.2,2.6c0,0.1-0.1,0.2-0.2,0.2h-1.4
		c-0.1,0-0.2,0-0.2-0.1c-0.2-0.4-0.7-0.8-1.4-0.8c-0.9,0-1.6,0.9-1.6,1.9c0,1.1,0.7,1.9,1.7,1.9c1,0,1.4-0.5,1.4-0.9v0h-1.9
		c-0.1,0-0.1-0.1-0.1-0.2v-1.3c0-0.1,0.1-0.2,0.1-0.2h3.8V19.7z"/>
</g>
</svg>
