<?xml version="1.0" encoding="utf-8"?>
<!-- Generator: Adobe Illustrator 28.0.0, SVG Export Plug-In . SVG Version: 6.00 Build 0)  -->
<svg version="1.1" id="레이어_1" xmlns="http://www.w3.org/2000/svg" xmlns:xlink="http://www.w3.org/1999/xlink" x="0px"
	 y="0px" viewBox="0 0 64.3 12.2" style="enable-background:new 0 0 64.3 12.2;" xml:space="preserve">
<style type="text/css">
	.st0{opacity:0.4;fill:#FFFFFF;}
	.st1{fill:#FFFFFF;}
</style>
<g>
	<path class="st0" d="M4.7,11.5c1-5.3,5-9.8,10.6-11.2c1.5-0.4,3-0.5,4.5-0.3c-1,5.3-5,9.8-10.6,11.2C7.7,11.6,6.2,11.7,4.7,11.5"/>
	<path class="st1" d="M0.2,6.7C0.1,6.7,0,6.6,0,6.6V5.1C0,5,0.1,4.9,0.2,4.9h6.9c0.1,0,0.2,0.1,0.2,0.2v1.5c0,0.1-0.1,0.2-0.2,0.2
		H4.7V12c0,0.1-0.1,0.1-0.1,0.1H2.7c-0.1,0-0.1-0.1-0.1-0.1V6.7H0.2z M9.9,7.5L9.9,7.5c0.4-0.3,0.9-0.5,1.5-0.5c1.3,0,2,0.8,2,2v2.8
		c0,0.1-0.1,0.2-0.2,0.2h-1.6c-0.1,0-0.2-0.1-0.2-0.2V9.3c0-0.3-0.3-0.6-0.6-0.6C10.4,8.7,10,9,9.9,9.3v2.6c0,0.1-0.1,0.2-0.2,0.2H8
		c-0.1,0-0.2-0.1-0.2-0.2V4.4C7.8,4.3,8,4.2,8,4.2h1.6c0.1,0,0.2,0.1,0.2,0.2V7.5z M16.1,10.1c0.1,0.4,0.5,0.6,1.2,0.6
		c0.6,0,1.2-0.2,1.5-0.3c0.1,0,0.2-0.1,0.3-0.1c0.2,0,0.3,0.1,0.3,0.2l0.2,0.6c0,0.1,0.1,0.2,0.1,0.3c0,0.1,0,0.2-0.2,0.3
		c-0.5,0.3-1.3,0.5-2.1,0.5c-1.9,0-3.2-1-3.2-2.6c0-1.4,1.2-2.6,3-2.6c1.8,0,2.8,1,2.8,2.3c0,0.4-0.1,0.8-0.1,0.8H16.1z M16.1,9.1
		h1.7c0-0.4-0.3-0.6-0.8-0.6C16.6,8.4,16.2,8.7,16.1,9.1z"/>
	<path class="st1" d="M22.9,12.2V8.2h2.6V7.6h-3.7V5.9H31v1.7h-3.7v0.6h2.6v4.1H22.9z M29.7,5.8L26.4,4l-3.3,1.8l-0.8-1.5l3.2-1.8
		V1.3h1.8v1.2l3.2,1.8L29.7,5.8z M28.2,9.9h-3.5v0.6h3.5V9.9z"/>
	<path class="st1" d="M34.4,12.1c-0.1,0-0.1-0.1-0.1-0.1V5.1c0-0.1,0.1-0.1,0.1-0.1h4.8c0.1,0,0.1,0.1,0.1,0.2v1.5
		c0,0.1-0.1,0.2-0.1,0.2h-3V8h2.8C39,8,39,8.1,39,8.2v1.4c0,0.1-0.1,0.2-0.1,0.2h-2.8V12c0,0.1-0.1,0.1-0.1,0.1H34.4z M44.6,9.6
		c0,1.7-1.2,2.6-2.5,2.6s-2.5-0.9-2.5-2.6c0-1.7,1.2-2.6,2.5-2.6S44.6,8,44.6,9.6z M42.1,8.7c-0.5,0-0.8,0.4-0.8,0.9
		c0,0.5,0.3,0.9,0.8,0.9s0.8-0.4,0.8-0.9C42.9,9.1,42.5,8.7,42.1,8.7z M47,9.3v2.6c0,0.1-0.1,0.2-0.2,0.2h-1.4
		c-0.1,0-0.2-0.1-0.2-0.2V7.4c0-0.1,0.1-0.2,0.2-0.2h1.2c0.1,0,0.1,0.1,0.2,0.2l0.1,0.5h0c0.3-0.6,0.8-0.8,1.3-0.8
		c0.8,0,1.3,0.5,1.3,1.6v0.8c0,0.1-0.1,0.2-0.2,0.2H48c-0.1,0-0.2-0.1-0.2-0.2V9.1c0-0.2-0.1-0.4-0.3-0.4C47.3,8.7,47,9,47,9.3z
		 M51.8,10.1c0.1,0.4,0.4,0.6,1,0.6c0.5,0,1-0.2,1.3-0.3c0.1,0,0.2-0.1,0.3-0.1c0.1,0,0.2,0.1,0.2,0.2l0.1,0.6
		c0,0.1,0.1,0.2,0.1,0.3c0,0.1,0,0.2-0.2,0.3c-0.4,0.3-1.1,0.5-1.8,0.5c-1.6,0-2.7-1-2.7-2.6c0-1.4,1-2.6,2.5-2.6
		c1.6,0,2.4,1,2.4,2.3c0,0.4-0.1,0.8-0.1,0.8H51.8z M51.8,9.1h1.5c0-0.4-0.2-0.6-0.7-0.6C52.2,8.4,51.9,8.7,51.8,9.1z M57.1,10.5
		c0.1,0,0.2,0,0.2,0.1c0.1,0.2,0.2,0.3,0.6,0.3c0.4,0,0.5-0.2,0.5-0.3c0-0.2-0.1-0.3-0.5-0.3l-0.9-0.1c-1-0.1-1.5-0.6-1.5-1.4
		c0-0.9,0.8-1.8,2.2-1.8c1.4,0,2.1,0.7,2.1,1.4c0,0.1-0.1,0.2-0.2,0.2h-1.3c-0.1,0-0.2,0-0.2-0.1c-0.1-0.1-0.2-0.2-0.4-0.2
		c-0.3,0-0.5,0.1-0.5,0.3c0,0.1,0.1,0.2,0.3,0.2l1,0.1c1.1,0.1,1.5,0.7,1.5,1.4c0,0.9-0.7,1.8-2.3,1.8c-1.5,0-2.3-0.7-2.3-1.5
		c0-0.1,0.1-0.3,0.2-0.3H57.1z M60.7,8.9c-0.1,0-0.1-0.1-0.1-0.2V7.4c0-0.1,0.1-0.2,0.1-0.2h0.4V6.1c0-0.1,0.1-0.2,0.2-0.2h1.4
		c0.1,0,0.2,0.1,0.2,0.2v1.1H64c0.1,0,0.1,0.1,0.1,0.2v1.3c0,0.1-0.1,0.2-0.1,0.2h-1.2v1.1c0,0.4,0.2,0.6,0.5,0.6
		c0.2,0,0.4-0.1,0.5-0.2c0.1-0.1,0.3,0,0.3,0.1l0.2,0.9c0,0.1,0,0.2,0,0.2c0,0.1,0,0.2-0.1,0.2c-0.2,0.2-0.7,0.4-1.3,0.4
		c-1.1,0-1.8-0.7-1.8-2V8.9H60.7z"/>
</g>
</svg>
